<?xml version="1.0" encoding="utf-8"?>


<!-- The icon can be used freely in both personal and commercial projects with no attribution required, but always appreciated. 
You may NOT sub-license, resell, rent, redistribute or otherwise transfer the icon without express written permission from iconmonstr.com -->


<!DOCTYPE svg PUBLIC "-//W3C//DTD SVG 1.1//EN" "http://www.w3.org/Graphics/SVG/1.1/DTD/svg11.dtd">

<svg version="1.1" xmlns="http://www.w3.org/2000/svg" xmlns:xlink="http://www.w3.org/1999/xlink" x="0px" y="0px"

	 width="512px" height="512px" viewBox="0 0 512 512" enable-background="new 0 0 512 512" xml:space="preserve">

<path id="stop-2-icon" d="M258.291,468h-84.732c-52.013,0-82.059-32.031-82.059-86.752c0-46.975,0.08-200.178,0.08-200.178

	c0-32.992,28.232-47.778,51.137-37.676l0.02-18.411c0-31.208,28.391-45.131,50.785-35.289c5.096-44.366,67.875-45.429,72.949-0.158

	c22.369-9.434,50.389,4.511,50.389,35.602v144.124c6.812-13.776,14.748-29.802,15.625-31.569

	c21.109-43.996,89.682-15.868,69.18,33.23c-2.4,6.123-57.07,125.838-61.547,135.881C322.999,445.223,302.15,468,258.291,468z

	 M116.674,181.077c0,0,0,153.201,0,200.171c0,40.913,19.086,61.659,56.885,61.659h84.732c35.449,0,47.213-20.074,58.908-46.317

	c4.523-10.151,59.07-129.535,61.119-134.866l0.15-0.376c8.326-19.751-16.35-27.493-23.379-12.766l-0.117,0.242

	c-0.117,0.232-21.67,43.755-25.119,50.805c-9.316,19.022-38.088,13.694-38.088-9.262V125.138c0-18.383-22.494-17.55-22.494,0

	c0,0,0,131.139,0,132.729c0,17.202-11.473,18.074-13.771,18.074c-2.303,0-13.791-0.872-13.791-18.074l-0.021-162.663

	c0-19.44-23.383-18.629-23.383-0.001v160.823c0,17.725-12.602,18.236-14.037,18.236c-2.334,0-13.969-0.871-13.969-18.08V124.997

	c0-17.464-22.617-18.184-22.617,0v139.316c0,17.216-11.561,18.089-13.879,18.089s-13.875-0.873-13.875-18.103v-84.486

	C139.928,161.408,116.674,158.986,116.674,181.077z"/>

</svg>

